<svg width="70" height="74" viewBox="0 0 70 74" fill="none" xmlns="http://www.w3.org/2000/svg" role="img" aria-label="Lenzro">
  <title>Lenzro (monochrome)</title>
  <path d="M30.4742 3.63054C32.2745 -0.200807 37.7245 -0.200598 39.525 3.63054L59.1031 45.2966L69.1168 66.6071C70.9745 70.5607 67.2249 74.8291 63.065 73.4958L34.9996 64.4997L6.93417 73.4958C2.77451 74.8285 -0.974254 70.5606 0.883392 66.6071L10.8971 45.2966L30.4742 3.63054ZM39.5289 25.6745C37.7313 21.8341 32.2689 21.8341 30.4713 25.6745L21.4029 45.0475L17.8658 52.6051C16.0143 56.5607 19.7678 60.8226 23.9254 59.485L34.9996 55.9216L46.0748 59.485C50.2323 60.8225 53.9859 56.5607 52.1344 52.6051L48.5963 45.0475L39.5289 25.6745Z"
    fill="currentColor"/>
</svg>
